<svg width="141" height="50" viewBox="0 0 141 50" fill="none" xmlns="http://www.w3.org/2000/svg">
<path d="M0 38.928V5.664H19.824L19.008 11.28H7.872V20.112H17.568V25.728H7.872V38.928H0Z" fill="#141414"/>
<path d="M43.7831 25.68C43.7831 26.736 43.7351 27.648 43.6391 28.416H27.8471C28.1031 30.56 28.7111 32.064 29.6711 32.928C30.6311 33.792 31.9591 34.224 33.6551 34.224C34.6791 34.224 35.6711 34.048 36.6311 33.696C37.5911 33.312 38.6311 32.736 39.7511 31.968L42.8711 36.192C39.8951 38.56 36.5831 39.744 32.9351 39.744C28.8071 39.744 25.6391 38.528 23.4311 36.096C21.2231 33.664 20.1191 30.4 20.1191 26.304C20.1191 23.712 20.5831 21.392 21.5111 19.344C22.4391 17.264 23.7991 15.632 25.5911 14.448C27.3831 13.232 29.5271 12.624 32.0231 12.624C35.7031 12.624 38.5831 13.776 40.6631 16.08C42.7431 18.384 43.7831 21.584 43.7831 25.68ZM36.3431 23.52C36.2791 19.616 34.9031 17.664 32.2151 17.664C30.9031 17.664 29.8791 18.144 29.1431 19.104C28.4391 20.064 28.0071 21.648 27.8471 23.856H36.3431V23.52Z" fill="#141414"/>
<path d="M54.8115 39.744C52.6035 39.744 50.8755 39.12 49.6275 37.872C48.4115 36.592 47.8035 34.784 47.8035 32.448V3.312L55.3875 2.496V32.16C55.3875 33.216 55.8195 33.744 56.6835 33.744C57.1315 33.744 57.5475 33.664 57.9315 33.504L59.4195 38.88C58.0435 39.456 56.5075 39.744 54.8115 39.744Z" fill="#141414"/>
<path d="M69.0615 39.744C66.8535 39.744 65.1255 39.12 63.8775 37.872C62.6615 36.592 62.0535 34.784 62.0535 32.448V3.312L69.6375 2.496V32.16C69.6375 33.216 70.0695 33.744 70.9335 33.744C71.3815 33.744 71.7975 33.664 72.1815 33.504L73.6695 38.88C72.2935 39.456 70.7575 39.744 69.0615 39.744Z" fill="#141414"/>
<path d="M84.1275 13.44V38.928H76.5435V13.44H84.1275ZM80.2875 0C81.5995 0 82.6715 0.416 83.5035 1.248C84.3675 2.048 84.7995 3.072 84.7995 4.32C84.7995 5.568 84.3675 6.608 83.5035 7.44C82.6715 8.24 81.5995 8.64 80.2875 8.64C78.9755 8.64 77.9035 8.24 77.0715 7.44C76.2395 6.608 75.8235 5.568 75.8235 4.32C75.8235 3.072 76.2395 2.048 77.0715 1.248C77.9035 0.416 78.9755 0 80.2875 0Z" fill="#141414"/>
<path d="M104.49 12.624C107.69 12.624 110.074 13.808 111.642 16.176C113.21 18.544 113.994 21.856 113.994 26.112C113.994 28.736 113.578 31.088 112.746 33.168C111.946 35.216 110.778 36.832 109.242 38.016C107.706 39.168 105.914 39.744 103.866 39.744C101.306 39.744 99.2424 38.864 97.6744 37.104V48.768L90.0904 49.584V13.44H96.7624L97.1464 16.272C98.1384 15.024 99.2744 14.112 100.554 13.536C101.834 12.928 103.146 12.624 104.49 12.624ZM101.562 34.176C104.602 34.176 106.122 31.52 106.122 26.208C106.122 23.2 105.786 21.12 105.114 19.968C104.442 18.784 103.434 18.192 102.09 18.192C101.226 18.192 100.41 18.448 99.6424 18.96C98.9064 19.472 98.2504 20.208 97.6744 21.168V31.92C98.6984 33.424 99.9944 34.176 101.562 34.176Z" fill="#141414"/>
<path d="M140.955 25.68C140.955 26.736 140.907 27.648 140.811 28.416H125.019C125.275 30.56 125.883 32.064 126.843 32.928C127.803 33.792 129.131 34.224 130.827 34.224C131.851 34.224 132.843 34.048 133.803 33.696C134.763 33.312 135.803 32.736 136.923 31.968L140.043 36.192C137.067 38.56 133.755 39.744 130.107 39.744C125.979 39.744 122.811 38.528 120.603 36.096C118.395 33.664 117.291 30.4 117.291 26.304C117.291 23.712 117.755 21.392 118.683 19.344C119.611 17.264 120.971 15.632 122.763 14.448C124.555 13.232 126.699 12.624 129.195 12.624C132.875 12.624 135.755 13.776 137.835 16.08C139.915 18.384 140.955 21.584 140.955 25.68ZM133.515 23.52C133.451 19.616 132.075 17.664 129.387 17.664C128.075 17.664 127.051 18.144 126.315 19.104C125.611 20.064 125.179 21.648 125.019 23.856H133.515V23.52Z" fill="#141414"/>
</svg>
